# File created by Blade
# Date/Time:  Mon Nov 18 17:26:10 2013
# Frame Rate: 100.000 fps
#------------------------------------------------------
:FULLY-SPECIFIED
:DEGREES
254
root -38.735933 -2.970797 38.670192 10.611852 -2.585345 15.225358
Spine 22.274800 -2.822580 1.772254
Spine1 8.085885 -0.904095 3.788569
Spine2 -22.395325 -1.672296 -0.554885
NeckDummy -0.101939 0.263828 0.933782 13.644379 -0.512407 -0.188662
Neck 2.452221 -15.600442 40.023902
Head -0.451555 -0.035893 0.270923 -5.013001 -5.263716 -2.222556
LeftShoulderDummy -0.151124 0.277293 0.954441 13.640274 -0.694951 0.051919
LeftShoulder 4.802377 -8.168874 15.055980
LeftArm 18.155196 35.917532 19.916691
LeftForeArm 47.071442
LeftForeArmRoll 24.302752
LeftHand -33.519388 -23.350532 12.518776
LeftHandThumb1 13.660012 4.251853
LeftHandIndex1 0.239200 41.427521
LeftHandPinky1 2.139786 61.962207
RightShoulderDummy -0.092379 0.281471 0.904745 13.613157 0.503722 0.245417
RightShoulder 5.781866 5.106559 6.562502
RightArm 6.114094 65.590059 45.170270
RightForeArm 100.801124
RightForeArmRoll 21.490840
RightHand -45.181683 -22.307971 8.649455
RightHandThumb1 12.218757 6.184831
RightHandIndex1 5.328026 32.702944
RightHandPinky1 7.908357 58.158190
LeftUpLeg -9.758057 22.853365 -45.076626
LeftLeg 44.360526
LeftFoot 0.027507 -0.687317 -1.367943 -23.470295 20.202292 -0.813106
LeftToeBase 1.152629
RightUpLeg 1.709573 18.019662 -36.055279
RightLeg 52.635191
RightFoot -0.560717 0.835630 0.864929 -22.270913 7.565850 -20.316881
RightToeBase -0.740144
255
root -38.852044 -2.963740 38.664163 10.593201 -2.463319 15.235446
Spine 22.282307 -2.728373 1.707259
Spine1 8.080462 -0.868859 3.672806
Spine2 -22.413188 -1.713165 -0.614751
NeckDummy -0.102887 0.265032 0.935212 13.655626 -0.466968 -0.281029
Neck 2.392955 -15.584386 40.051121
Head -0.450566 -0.039414 0.268125 -4.965700 -5.284958 -2.206316
LeftShoulderDummy -0.151143 0.276384 0.954675 13.651450 -0.645291 -0.054480
LeftShoulder 4.885883 -8.180774 15.156945
LeftArm 17.972438 36.041934 19.813824
LeftForeArm 47.110799
LeftForeArmRoll 24.204324
LeftHand -33.548140 -23.277741 12.540255
LeftHandThumb1 13.696926 4.196002
LeftHandIndex1 0.141672 41.227796
LeftHandPinky1 2.148119 61.838399
RightShoulderDummy -0.093633 0.284670 0.906971 13.624122 0.459157 0.338947
RightShoulder 5.813683 5.050578 6.662352
RightArm 5.884026 65.300514 44.950995
RightForeArm 100.792275
RightForeArmRoll 21.373077
RightHand -45.171357 -22.378625 8.123549
RightHandThumb1 11.842179 5.797930
RightHandIndex1 5.543048 32.564683
RightHandPinky1 6.997840 57.359725
LeftUpLeg -9.843492 22.860185 -44.837023
LeftLeg 43.929217
LeftFoot 0.027652 -0.687666 -1.353100 -23.700995 20.332903 -0.602539
LeftToeBase 1.119933
RightUpLeg 1.770694 18.018451 -36.169238
RightLeg 52.783783
RightFoot -0.549196 0.831037 0.864794 -21.878832 7.386479 -20.368236
RightToeBase -1.014950
256
root -38.963852 -2.956957 38.658499 10.564186 -2.347275 15.229074
Spine 22.264057 -2.655230 1.676938
Spine1 8.073767 -0.833654 3.578216
Spine2 -22.391883 -1.726377 -0.707401
NeckDummy -0.103867 0.268273 0.934389 13.632634 -0.375514 -0.494250
Neck 2.257263 -15.393740 40.079770
Head -0.455656 -0.045542 0.265523 -4.925134 -5.354865 -2.223273
LeftShoulderDummy -0.153131 0.276006 0.952550 13.628589 -0.559197 -0.251417
LeftShoulder 4.964738 -8.023132 15.220546
LeftArm 17.812531 36.288462 19.724379
LeftForeArm 47.173523
LeftForeArmRoll 24.129419
LeftHand -33.543593 -23.337119 12.607275
LeftHandThumb1 13.762004 4.092744
LeftHandIndex1 -0.019378 41.100638
LeftHandPinky1 1.824839 61.702227
RightShoulderDummy -0.095823 0.292572 0.907908 13.599606 0.370239 0.550259
RightShoulder 5.880531 4.809614 6.713670
RightArm 5.570109 65.003170 44.572563
RightForeArm 100.788793
RightForeArmRoll 21.304875
RightHand -45.163307 -22.444477 7.528194
RightHandThumb1 11.486315 5.419788
RightHandIndex1 5.769225 32.127921
RightHandPinky1 5.921857 56.458683
LeftUpLeg -9.937925 22.866526 -44.592038
LeftLeg 43.525287
LeftFoot 0.029826 -0.693275 -1.339363 -23.928757 20.461004 -0.431629
LeftToeBase 1.048865
RightUpLeg 1.843910 18.024005 -36.284786
RightLeg 52.939231
RightFoot -0.555477 0.827644 0.871866 -22.173989 7.352850 -20.462554
RightToeBase -0.757103
257
root -39.068620 -2.949904 38.651796 10.543707 -2.235046 15.201319
Spine 22.269450 -2.557691 1.590528
Spine1 8.061857 -0.803096 3.442679
Spine2 -22.416241 -1.747291 -0.744635
NeckDummy -0.103469 0.271472 0.936362 13.653972 -0.348241 -0.425535
Neck 2.337672 -15.544303 40.176373
Head -0.456780 -0.048029 0.264636 -4.937487 -5.327835 -2.256895
LeftShoulderDummy -0.151745 0.279928 0.953763 13.649857 -0.524764 -0.218231
LeftShoulder 5.047544 -8.234977 15.312071
LeftArm 17.625825 36.414858 19.586280
LeftForeArm 47.102346
LeftForeArmRoll 23.958158
LeftHand -33.575400 -23.301111 12.741663
LeftHandThumb1 13.749302 4.138823
LeftHandIndex1 -0.018151 41.106190
LeftHandPinky1 2.000779 61.663531
RightShoulderDummy -0.095011 0.294500 0.910407 13.621034 0.341355 0.485614
RightShoulder 5.893276 4.997195 6.750787
RightArm 5.500588 64.802142 44.481522
RightForeArm 100.742985
RightForeArmRoll 21.327427
RightHand -45.189033 -22.570801 6.950144
RightHandThumb1 11.388434 5.092824
RightHandIndex1 6.211225 31.940819
RightHandPinky1 4.966868 55.735608
LeftUpLeg -10.021861 22.877369 -44.338114
LeftLeg 43.120646
LeftFoot 0.024817 -0.691219 -1.322306 -24.149644 20.658129 -0.233225
LeftToeBase 1.020368
RightUpLeg 1.889899 18.028645 -36.419166
RightLeg 53.090986
RightFoot -0.554357 0.830711 0.882805 -22.271261 7.296890 -20.441446
RightToeBase -0.840848
258
root -39.172212 -2.940980 38.646768 10.514624 -2.142954 15.155314
Spine 22.271121 -2.465758 1.524979
Spine1 8.058319 -0.763062 3.331049
Spine2 -22.468373 -1.788891 -0.826994
NeckDummy -0.106357 0.272508 0.939329 13.669498 -0.291487 -0.616661
Neck 2.238526 -15.401957 40.251998
Head -0.456955 -0.050829 0.265158 -4.932136 -5.349875 -2.249549
LeftShoulderDummy -0.154905 0.278319 0.955758 13.665169 -0.472718 -0.374162
LeftShoulder 5.134782 -8.148928 15.448836
LeftArm 17.368190 36.590173 19.482568
LeftForeArm 47.112242
LeftForeArmRoll 23.919729
LeftHand -33.495969 -23.515649 12.676726
LeftHandThumb1 13.547278 4.735378
LeftHandIndex1 -0.005725 41.193140
LeftHandPinky1 2.011631 61.553132
RightShoulderDummy -0.097940 0.299283 0.914527 13.636533 0.284708 0.672243
RightShoulder 5.938872 4.860809 6.683880
RightArm 5.315214 64.588940 44.260869
RightForeArm 100.687682
RightForeArmRoll 21.477416
RightHand -45.262911 -22.771644 6.295603
RightHandThumb1 11.113139 4.871256
RightHandIndex1 6.765317 31.460024
RightHandPinky1 3.913945 54.900709
LeftUpLeg -10.118134 22.896859 -44.065646
LeftLeg 42.704453
LeftFoot 0.025022 -0.691124 -1.309099 -24.358744 20.868099 -0.033402
LeftToeBase 0.979665
RightUpLeg 1.942441 18.009805 -36.550116
RightLeg 53.243773
RightFoot -0.554276 0.831168 0.887109 -22.240337 7.166808 -20.467093
RightToeBase -0.878797
259
root -39.261203 -2.931982 38.637155 10.476571 -2.015358 15.122478
Spine 22.277619 -2.355004 1.463018
Spine1 8.065263 -0.733676 3.233973
Spine2 -22.467960 -1.834540 -0.906704
NeckDummy -0.106626 0.272185 0.939519 13.661423 -0.227318 -0.737715
Neck 2.142638 -15.348620 40.260940
Head -0.457976 -0.051327 0.265260 -4.907965 -5.354459 -2.243698
LeftShoulderDummy -0.155788 0.275427 0.954800 13.657405 -0.409260 -0.506650
LeftShoulder 5.231802 -8.097349 15.534502
LeftArm 17.241077 36.797538 19.444788
LeftForeArm 47.067952
LeftForeArmRoll 23.727051
LeftHand -33.440264 -23.485191 12.595744
LeftHandThumb1 13.681344 4.289820
LeftHandIndex1 0.212691 40.849829
LeftHandPinky1 2.157495 61.209108
RightShoulderDummy -0.098403 0.301686 0.915916 13.627411 0.220319 0.801580
RightShoulder 5.916729 4.807727 6.721646
RightArm 5.093102 64.402038 44.012023
RightForeArm 100.642506
RightForeArmRoll 21.569683
RightHand -45.223706 -23.005270 5.741206
RightHandThumb1 11.233617 4.652432
RightHandIndex1 7.060404 31.183419
RightHandPinky1 2.932360 54.300307
LeftUpLeg -10.227500 22.857176 -43.797984
LeftLeg 42.335575
LeftFoot 0.016484 -0.692062 -1.290439 -24.569802 21.075547 0.139936
LeftToeBase 0.916775
RightUpLeg 2.002652 18.062093 -36.661146
RightLeg 53.373514
RightFoot -0.554178 0.828468 0.890235 -22.219038 7.010192 -20.450762
RightToeBase -0.974179
260
root -39.351797 -2.923882 38.628018 10.443655 -1.904852 15.059482
Spine 22.278239 -2.274785 1.411742
Spine1 8.056568 -0.705320 3.144014
Spine2 -22.475302 -1.858202 -0.963353
NeckDummy -0.107287 0.272833 0.940298 13.648357 -0.175287 -0.775833
Neck 2.140901 -15.351148 40.317317
Head -0.456596 -0.053725 0.264602 -4.900819 -5.304678 -2.253735
LeftShoulderDummy -0.156912 0.275164 0.954501 13.644716 -0.356276 -0.554441
LeftShoulder 5.347011 -8.096343 15.569263
LeftArm 17.069849 37.048388 19.358698
LeftForeArm 47.046591
LeftForeArmRoll 23.491251
LeftHand -33.392552 -23.545314 12.712985
LeftHandThumb1 13.392318 4.679811
LeftHandIndex1 -0.111597 40.649901
LeftHandPinky1 1.797036 60.966656
RightShoulderDummy -0.099371 0.303113 0.917681 13.614298 0.169138 0.837827
RightShoulder 5.914809 4.854674 6.735089
RightArm 4.996397 64.273526 43.844374
RightForeArm 100.562654
RightForeArmRoll 21.720522
RightHand -45.261511 -23.193822 5.279911
RightHandThumb1 11.278130 4.384938
RightHandIndex1 7.348031 30.867733
RightHandPinky1 2.113495 53.753293
LeftUpLeg -10.380625 22.831071 -43.496231
LeftLeg 41.915103
LeftFoot 0.008110 -0.688480 -1.276021 -24.771024 21.363141 0.350613
LeftToeBase 0.908130
RightUpLeg 2.024807 18.074393 -36.794125
RightLeg 53.513108
RightFoot -0.557958 0.829757 0.890837 -22.199686 6.875864 -20.465166
RightToeBase -1.029237
261
root -39.441986 -2.914245 38.619686 10.401334 -1.805246 14.977685
Spine 22.292313 -2.202217 1.346422
Spine1 8.049781 -0.675022 3.029123
Spine2 -22.487718 -1.891961 -0.963627
NeckDummy -0.108499 0.273698 0.941549 13.653762 -0.179630 -0.666776
Neck 2.227814 -15.481844 40.360821
Head -0.455869 -0.055262 0.265391 -4.923220 -5.296842 -2.268930
LeftShoulderDummy -0.156858 0.278072 0.955883 13.649413 -0.355540 -0.460691
LeftShoulder 5.445662 -8.313040 15.639917
LeftArm 16.860547 37.206280 19.254811
LeftForeArm 46.939475
LeftForeArmRoll 23.486109
LeftHand -33.484472 -23.569029 12.792420
LeftHandThumb1 13.328329 4.654546
LeftHandIndex1 0.000886 40.481049
LeftHandPinky1 1.800548 60.724070
RightShoulderDummy -0.100594 0.301877 0.919008 13.619661 0.173020 0.727259
RightShoulder 5.825589 5.090073 6.715393
RightArm 4.827999 64.164544 43.670813
RightForeArm 100.468007
RightForeArmRoll 21.893113
RightHand -45.306394 -23.587943 5.069897
RightHandThumb1 11.542613 4.263113
RightHandIndex1 7.468944 30.889605
RightHandPinky1 1.561172 53.621995
LeftUpLeg -10.457151 22.836903 -43.217764
LeftLeg 41.540500
LeftFoot 0.005617 -0.687909 -1.262784 -25.011326 21.586372 0.586107
LeftToeBase 0.854131
RightUpLeg 2.018854 18.056331 -36.910005
RightLeg 53.637005
RightFoot -0.566085 0.838150 0.888521 -22.216407 6.726966 -20.542904
RightToeBase -1.018571
